<?xml version="1.0" encoding="UTF-8"?>
<svg xmlns="http://www.w3.org/2000/svg" xmlns:xlink="http://www.w3.org/1999/xlink" width="1024" height="450"><g transform="translate(120,20)"><path class="link" d="M540,225.50000000000003C630,225.50000000000003 630,164 720,164"></path><path class="link" d="M540,225.50000000000003C630,225.50000000000003 630,184.5 720,184.5"></path><path class="link" d="M540,225.50000000000003C630,225.50000000000003 630,205 720,205"></path><path class="link" d="M540,225.50000000000003C630,225.50000000000003 630,225.50000000000003 720,225.50000000000003"></path><path class="link" d="M540,225.50000000000003C630,225.50000000000003 630,246 720,246"></path><path class="link" d="M540,225.50000000000003C630,225.50000000000003 630,266.5 720,266.5"></path><path class="link" d="M540,225.50000000000003C630,225.50000000000003 630,287 720,287"></path><path class="link" d="M360,215.25C450,215.25 450,123 540,123"></path><path class="link" d="M360,215.25C450,215.25 450,143.5 540,143.5"></path><path class="link" d="M360,215.25C450,215.25 450,225.50000000000003 540,225.50000000000003"></path><path class="link" d="M360,215.25C450,215.25 450,307.5 540,307.5"></path><path class="link" d="M180,205C270,205 270,10.25 360,10.25"></path><path class="link" d="M180,205C270,205 270,30.75 360,30.75"></path><path class="link" d="M180,205C270,205 270,51.25 360,51.25"></path><path class="link" d="M180,205C270,205 270,71.75 360,71.75"></path><path class="link" d="M180,205C270,205 270,92.25 360,92.25"></path><path class="link" d="M180,205C270,205 270,215.25 360,215.25"></path><path class="link" d="M180,205C270,205 270,338.25 360,338.25"></path><path class="link" d="M180,205C270,205 270,358.75 360,358.75"></path><path class="link" d="M180,205C270,205 270,379.25 360,379.25"></path><path class="link" d="M180,205C270,205 270,399.75 360,399.75"></path><path class="link" d="M0,205C90,205 90,205 180,205"></path><g class="node" transform="translate(360,399.75)"><circle r="4.5" style="fill: rgb(255, 255, 255);"></circle><text x="10" dy=".35em" text-anchor="start" style="fill-opacity: 1;">sameAs: 01639374.2012.682254</text></g><g class="node" transform="translate(360,379.25)"><circle r="4.5" style="fill: rgb(255, 255, 255);"></circle><text x="10" dy=".35em" text-anchor="start" style="fill-opacity: 1;">description: The library catalog as a catalog of works
      was an infectious idea, which together with research led to
      reconceptualization in the form of the FRBR conceptual model. Two
      categories of lacunae emerge—the expression entity, and gaps in the
      model such as aggregates and dynamic documents. Evidence needed to
      extend the FRBR model is available in contemporary research on
      instantiation. The challenge for the bibliographic community is to
      begin to think of FRBR as a form of knowledge organization system,
      adding a final dimension to classification. The articles in the present
      special issue offer a compendium of the promise of the FRBR
      model.</text></g><g class="node" transform="translate(360,358.75)"><circle r="4.5" style="fill: rgb(255, 255, 255);"></circle><text x="10" dy=".35em" text-anchor="start" style="fill-opacity: 1;">pageEnd: 368</text></g><g class="node" transform="translate(360,338.25)"><circle r="4.5" style="fill: rgb(255, 255, 255);"></circle><text x="10" dy=".35em" text-anchor="start" style="fill-opacity: 1;">pageStart: 360</text></g><g class="node" transform="translate(540,307.5)"><circle r="4.5" style="fill: rgb(255, 255, 255);"></circle><text x="10" dy=".35em" text-anchor="start" style="fill-opacity: 1;">issueNumber: 5</text></g><g class="node" transform="translate(720,287)"><circle r="4.5" style="fill: rgb(255, 255, 255);"></circle><text x="10" dy=".35em" text-anchor="start" style="fill-opacity: 1;">issn: 1544-4554</text></g><g class="node" transform="translate(720,266.5)"><circle r="4.5" style="fill: rgb(255, 255, 255);"></circle><text x="10" dy=".35em" text-anchor="start" style="fill-opacity: 1;">issn: 0163-9374</text></g><g class="node" transform="translate(720,246)"><circle r="4.5" style="fill: rgb(255, 255, 255);"></circle><text x="10" dy=".35em" text-anchor="start" style="fill-opacity: 1;">publisher: Taylor &amp; Francis Group</text></g><g class="node" transform="translate(720,225.5)"><circle r="4.5" style="fill: rgb(255, 255, 255);"></circle><text x="10" dy=".35em" text-anchor="start" style="fill-opacity: 1;">volumeNumber: 50</text></g><g class="node" transform="translate(720,205)"><circle r="4.5" style="fill: rgb(255, 255, 255);"></circle><text x="10" dy=".35em" text-anchor="start" style="fill-opacity: 1;">name: Cataloging &amp; Classification Quarterly</text></g><g class="node" transform="translate(720,184.5)"><circle r="4.5" style="fill: rgb(255, 255, 255);"></circle><text x="10" dy=".35em" text-anchor="start" style="fill-opacity: 1;">type: PublicationVolume</text></g><g class="node" transform="translate(720,164)"><circle r="4.5" style="fill: rgb(255, 255, 255);"></circle><text x="10" dy=".35em" text-anchor="start" style="fill-opacity: 1;">type: Periodical</text></g><g class="node" transform="translate(540,225.5)"><circle r="4.5" style="fill: rgb(255, 255, 255);"></circle><text x="-10" dy=".35em" text-anchor="end" style="fill-opacity: 1;">isPartOf: #periodical</text></g><g class="node" transform="translate(540,143.5)"><circle r="4.5" style="fill: rgb(255, 255, 255);"></circle><text x="10" dy=".35em" text-anchor="start" style="fill-opacity: 1;">datePublished: 2012</text></g><g class="node" transform="translate(540,123)"><circle r="4.5" style="fill: rgb(255, 255, 255);"></circle><text x="10" dy=".35em" text-anchor="start" style="fill-opacity: 1;">type: PublicationIssue</text></g><g class="node" transform="translate(360,215.25)"><circle r="4.5" style="fill: rgb(255, 255, 255);"></circle><text x="-10" dy=".35em" text-anchor="end" style="fill-opacity: 1;">isPartOf: #issue</text></g><g class="node" transform="translate(360,92.25)"><circle r="4.5" style="fill: rgb(255, 255, 255);"></circle><text x="10" dy=".35em" text-anchor="start" style="fill-opacity: 1;">about: Works</text></g><g class="node" transform="translate(360,71.75)"><circle r="4.5" style="fill: rgb(255, 255, 255);"></circle><text x="10" dy=".35em" text-anchor="start" style="fill-opacity: 1;">about: Catalog</text></g><g class="node" transform="translate(360,51.25)"><circle r="4.5" style="fill: rgb(255, 255, 255);"></circle><text x="10" dy=".35em" text-anchor="start" style="fill-opacity: 1;">author: Smiraglia, Richard P.</text></g><g class="node" transform="translate(360,30.75)"><circle r="4.5" style="fill: rgb(255, 255, 255);"></circle><text x="10" dy=".35em" text-anchor="start" style="fill-opacity: 1;">name: Be Careful What You Wish For: FRBR, Some Lacunae, A Review</text></g><g class="node" transform="translate(360,10.25)"><circle r="4.5" style="fill: rgb(255, 255, 255);"></circle><text x="10" dy=".35em" text-anchor="start" style="fill-opacity: 1;">type: ScholarlyArticle</text></g><g class="node" transform="translate(180,205)"><circle r="4.5" style="fill: rgb(255, 255, 255);"></circle><text x="-10" dy=".35em" text-anchor="end" style="fill-opacity: 1;">#article</text></g><g class="node" transform="translate(0,205)"><circle r="4.5" style="fill: rgb(255, 255, 255);"></circle><text x="-10" dy=".35em" text-anchor="end" style="fill-opacity: 1;">Web Page</text></g></g></svg>